<svg xmlns="http://www.w3.org/2000/svg" width="26" height="26" viewBox="0 0 26 26">
  <g id="Group_832" data-name="Group 832" transform="translate(-651 -1032)">
    <circle id="Ellipse_56" data-name="Ellipse 56" cx="13" cy="13" r="13" transform="translate(651 1032)" fill="#c2a066" />
    <path id="Path_180" data-name="Path 180" d="M220.379,407.8h.835v11.482h-.835a1.182,1.182,0,0,0,.357-.895v-9.677a1.212,1.212,0,0,0-.357-.91m10.333,7.873a5.969,5.969,0,0,0-.492-5.2,4.755,4.755,0,0,0-3.131-2.147c2.163.97,3.341,2.222,3.683,4.354a5.731,5.731,0,0,1-1.879,5.115,5.291,5.291,0,0,1-1.685,1.028,5.023,5.023,0,0,0,3.5-3.147m-6.77,3.147c2.148,0,4.056.045,5.622-2.55a5.32,5.32,0,0,0,.164-5.145c-1.284-2.356-3.251-2.893-5.428-2.893H222v10.587Zm6.845-8.275a6.413,6.413,0,0,1,.075,5.994c-1.536,2.669-3.639,2.744-5.711,2.744h-3.624V407.8h3.266c1.655-.016,4.592.329,5.994,2.744" transform="translate(438.674 631.117)" fill="#fff" />
  </g>
</svg>
