<svg width="32" height="33" viewBox="0 0 32 33" fill="none" xmlns="http://www.w3.org/2000/svg">
<path fill-rule="evenodd" clip-rule="evenodd" d="M0 7.5C0 6.67157 0.671573 6 1.5 6H30.5C31.3284 6 32 6.67157 32 7.5V25.5C32 26.3284 31.3284 27 30.5 27H1.5C0.671573 27 0 26.3284 0 25.5V7.5Z" fill="#F4F6F7"/>
<path fill-rule="evenodd" clip-rule="evenodd" d="M12.5 22C15.5376 22 18 19.5376 18 16.5C18 13.4624 15.5376 11 12.5 11C9.46243 11 7 13.4624 7 16.5C7 19.5376 9.46243 22 12.5 22Z" fill="#D8232A"/>
<path fill-rule="evenodd" clip-rule="evenodd" d="M16 20.7428C16.9509 21.5282 18.1704 22 19.5 22C22.5376 22 25 19.5376 25 16.5C25 13.4624 22.5376 11 19.5 11C18.1704 11 16.9509 11.4718 16 12.2572C17.2215 13.266 18 14.7921 18 16.5C18 18.2079 17.2215 19.734 16 20.7428Z" fill="#ED9F2D"/>
<path fill-rule="evenodd" clip-rule="evenodd" d="M16 12.2571C14.7785 13.2659 14 14.792 14 16.4999C14 18.2079 14.7785 19.734 16 20.7428C17.2215 19.734 18 18.2079 18 16.4999C18 14.792 17.2215 13.2659 16 12.2571Z" fill="#D8232A"/>
<mask id="mask0_445_2485" style="mask-type:alpha" maskUnits="userSpaceOnUse" x="14" y="12" width="4" height="9">
<path fill-rule="evenodd" clip-rule="evenodd" d="M16 12.2571C14.7785 13.2659 14 14.792 14 16.4999C14 18.2079 14.7785 19.734 16 20.7428C17.2215 19.734 18 18.2079 18 16.4999C18 14.792 17.2215 13.2659 16 12.2571Z" fill="white"/>
</mask>
<g mask="url(#mask0_445_2485)">
<path fill-rule="evenodd" clip-rule="evenodd" d="M13 13H19V14H13V13ZM13 15H19V16H13V15ZM19 17H13V18H19V17ZM13 19H19V20H13V19ZM19 21H13V22H19V21Z" fill="#ED9F2D"/>
</g>
<path fill-rule="evenodd" clip-rule="evenodd" d="M0 7.5C0 6.67157 0.671573 6 1.5 6H30.5C31.3284 6 32 6.67157 32 7.5V25.5C32 26.3284 31.3284 27 30.5 27H1.5C0.671573 27 0 26.3284 0 25.5V7.5Z" fill="#E5E5E5" fill-opacity="0.01"/>
</svg>
