<svg width="20" height="22" viewBox="0 0 20 22" fill="none" xmlns="http://www.w3.org/2000/svg">
<path d="M11.62 16.023L7.42096 13.733C6.87276 14.3191 6.16095 14.7267 5.37803 14.9029C4.59512 15.0791 3.77731 15.0157 3.03088 14.721C2.28445 14.4263 1.64392 13.9139 1.19253 13.2504C0.741137 12.5869 0.499756 11.803 0.499756 11.0005C0.499756 10.198 0.741137 9.41405 1.19253 8.75055C1.64392 8.08704 2.28445 7.57464 3.03088 7.27995C3.77731 6.98526 4.59512 6.9219 5.37803 7.0981C6.16095 7.27431 6.87276 7.68193 7.42096 8.26799L11.621 5.97799C11.3825 5.03406 11.4965 4.03558 11.9416 3.16969C12.3867 2.30381 13.1323 1.62997 14.0386 1.27449C14.945 0.919012 15.9499 0.906295 16.8649 1.23872C17.78 1.57115 18.5424 2.22591 19.0093 3.08025C19.4761 3.9346 19.6153 4.92988 19.4009 5.87954C19.1864 6.82919 18.6329 7.66803 17.8442 8.2388C17.0555 8.80957 16.0857 9.0731 15.1166 8.97998C14.1475 8.88687 13.2456 8.4435 12.58 7.73299L8.37996 10.023C8.54116 10.6643 8.54116 11.3356 8.37996 11.977L12.579 14.267C13.2446 13.5565 14.1464 13.1131 15.1156 13.02C16.0847 12.9269 17.0545 13.1904 17.8432 13.7612C18.6319 14.332 19.1854 15.1708 19.3999 16.1204C19.6143 17.0701 19.4751 18.0654 19.0083 18.9197C18.5414 19.7741 17.779 20.4288 16.8639 20.7613C15.9489 21.0937 14.944 21.081 14.0376 20.7255C13.1313 20.37 12.3857 19.6962 11.9406 18.8303C11.4955 17.9644 11.3815 16.9659 11.62 16.022V16.023ZM4.49996 13C5.0304 13 5.5391 12.7893 5.91418 12.4142C6.28925 12.0391 6.49996 11.5304 6.49996 11C6.49996 10.4696 6.28925 9.96085 5.91418 9.58578C5.5391 9.2107 5.0304 8.99999 4.49996 8.99999C3.96953 8.99999 3.46082 9.2107 3.08575 9.58578C2.71068 9.96085 2.49996 10.4696 2.49996 11C2.49996 11.5304 2.71068 12.0391 3.08575 12.4142C3.46082 12.7893 3.96953 13 4.49996 13ZM15.5 6.99999C16.0304 6.99999 16.5391 6.78928 16.9142 6.4142C17.2892 6.03913 17.5 5.53042 17.5 4.99999C17.5 4.46956 17.2892 3.96085 16.9142 3.58578C16.5391 3.2107 16.0304 2.99999 15.5 2.99999C14.9695 2.99999 14.4608 3.2107 14.0857 3.58578C13.7107 3.96085 13.5 4.46956 13.5 4.99999C13.5 5.53042 13.7107 6.03913 14.0857 6.4142C14.4608 6.78928 14.9695 6.99999 15.5 6.99999ZM15.5 19C16.0304 19 16.5391 18.7893 16.9142 18.4142C17.2892 18.0391 17.5 17.5304 17.5 17C17.5 16.4696 17.2892 15.9608 16.9142 15.5858C16.5391 15.2107 16.0304 15 15.5 15C14.9695 15 14.4608 15.2107 14.0857 15.5858C13.7107 15.9608 13.5 16.4696 13.5 17C13.5 17.5304 13.7107 18.0391 14.0857 18.4142C14.4608 18.7893 14.9695 19 15.5 19Z" fill="black"/>
</svg>
