<svg width="32" height="33" viewBox="0 0 32 33" fill="none" xmlns="http://www.w3.org/2000/svg">
<path fill-rule="evenodd" clip-rule="evenodd" d="M0 7.5C0 6.67157 0.671573 6 1.5 6H30.5C31.3284 6 32 6.67157 32 7.5V25.5C32 26.3284 31.3284 27 30.5 27H1.5C0.671573 27 0 26.3284 0 25.5V7.5Z" fill="#F4F6F7"/>
<path fill-rule="evenodd" clip-rule="evenodd" d="M0 7.5C0 6.67157 0.671573 6 1.5 6H30.5C31.3284 6 32 6.67157 32 7.5V11H0V7.5Z" fill="#4095DB"/>
<path fill-rule="evenodd" clip-rule="evenodd" d="M0 22H32V25.5C32 26.3284 31.3284 27 30.5 27H1.5C0.671573 27 0 26.3284 0 25.5V22Z" fill="#F4B662"/>
<path fill-rule="evenodd" clip-rule="evenodd" d="M20.1405 13.2846C19.8291 13.1485 19.3394 13 18.7294 13C17.1725 13 16.0766 13.9204 16.0675 15.2381C16.0576 16.2127 16.8495 16.7564 17.4466 17.0804C18.0602 17.4125 18.2664 17.625 18.2639 17.9219C18.2597 18.3761 17.7741 18.5842 17.3214 18.5842C16.6909 18.5842 16.356 18.4818 15.8381 18.2286L15.6355 18.1206L15.4153 19.6386C15.7825 19.8274 16.4632 19.9914 17.1697 20C18.8243 20 19.8995 19.0909 19.9121 17.6837C19.9177 16.9108 19.4981 16.3248 18.5893 15.8411C18.039 15.5267 17.7013 15.3184 17.7052 15.0001C17.7055 14.7182 17.9905 14.4166 18.6073 14.4166C19.1224 14.4074 19.4952 14.5393 19.7858 14.6771L19.9272 14.7547L20.1405 13.2846ZM12.8536 19.8995L13.8388 13.1182H15.4135L14.4284 19.8995H12.8536ZM22.8646 15.5998C22.8646 15.5998 22.3678 17.1054 22.2373 17.4952H23.5446C23.4824 17.1562 23.1802 15.5376 23.1802 15.5376L23.0739 14.9528C23.0319 15.0872 22.9732 15.2653 22.9286 15.4008C22.8889 15.5215 22.8603 15.6082 22.8646 15.5998ZM24.1801 13.1251H22.9631C22.5856 13.1251 22.3031 13.2451 22.1377 13.6872L19.7991 19.9019H21.4531C21.4531 19.9019 21.7229 19.0658 21.7842 18.8824C21.869 18.8824 22.2689 18.8831 22.6929 18.884C23.171 18.8849 23.6796 18.8859 23.8011 18.8859C23.8483 19.1225 23.9929 19.9019 23.9929 19.9019H25.4545L24.1801 13.1251ZM11.5325 13.1239L9.99122 17.7471L9.82612 16.8073L9.27428 13.6914C9.17908 13.2617 8.9024 13.1343 8.56042 13.1193H6.02099L6 13.2598C6.61781 13.4354 7.17026 13.6887 7.65441 14.0036L9.05479 19.8935L10.7214 19.8924L13.2013 13.1239H11.5325Z" fill="#0071CE"/>
<path fill-rule="evenodd" clip-rule="evenodd" d="M0 7.5C0 6.67157 0.671573 6 1.5 6H30.5C31.3284 6 32 6.67157 32 7.5V25.5C32 26.3284 31.3284 27 30.5 27H1.5C0.671573 27 0 26.3284 0 25.5V7.5Z" fill="#E5E5E5" fill-opacity="0.01"/>
</svg>
