<svg xmlns="http://www.w3.org/2000/svg" viewBox="0 0 48 48">

  <g transform="matrix(2,0,0,2,0,0)">
    <g>
      <path d="M21.5,3H18.75a.25.25,0,0,1-.25-.25V1a1,1,0,0,0-2,0V5.75a.75.75,0,0,1-1.5,0V3.5a.5.5,0,0,0-.5-.5H8.25A.25.25,0,0,1,8,2.75V1A1,1,0,0,0,6,1V5.75a.75.75,0,0,1-1.5,0V3.5A.5.5,0,0,0,4,3H2.5a2,2,0,0,0-2,2V22a2,2,0,0,0,2,2h19a2,2,0,0,0,2-2V5A2,2,0,0,0,21.5,3Zm0,18.5a.5.5,0,0,1-.5.5H3a.5.5,0,0,1-.5-.5V9.5A.5.5,0,0,1,3,9H21a.5.5,0,0,1,.5.5Z" style="fill: #FFFFFF"></path>
      <path d="M9.65,11.15a1.51,1.51,0,0,0-1.59.18L6.38,12.68a1,1,0,1,0,1.24,1.56l.88-.7V19a1,1,0,0,0,2,0V12.5A1.5,1.5,0,0,0,9.65,11.15Z" style="fill: #FFFFFF"></path>
      <path d="M16,11H13a1,1,0,0,0,0,2h2.21l-2.62,5.58a1,1,0,0,0,.49,1.33,1,1,0,0,0,1.33-.48l3-6.34A1.51,1.51,0,0,0,16,11Z" style="fill: #FFFFFF"></path>
    </g>
  </g>
</svg>
