<svg xmlns="http://www.w3.org/2000/svg" data-name="instagram" viewBox="0 0 11.184 11.184" className="svg-inline">
	<path data-name="instagram_path" d="M5.592.994a17.147,17.147,0,0,1,2.237.062,2.882,2.882,0,0,1,1.056.186A2.182,2.182,0,0,1,9.942,2.3a2.882,2.882,0,0,1,.186,1.056c0,.559.062.746.062,2.237a17.146,17.146,0,0,1-.062,2.237,2.882,2.882,0,0,1-.186,1.056A2.182,2.182,0,0,1,8.885,9.942a2.882,2.882,0,0,1-1.056.186c-.559,0-.746.062-2.237.062a17.146,17.146,0,0,1-2.237-.062A2.882,2.882,0,0,1,2.3,9.942,2.182,2.182,0,0,1,1.243,8.885a2.882,2.882,0,0,1-.186-1.056c0-.559-.062-.746-.062-2.237a17.147,17.147,0,0,1,.062-2.237A2.882,2.882,0,0,1,1.243,2.3a2.232,2.232,0,0,1,.435-.621A1.051,1.051,0,0,1,2.3,1.243a2.882,2.882,0,0,1,1.056-.186A17.147,17.147,0,0,1,5.592.994m0-.994a18.359,18.359,0,0,0-2.3.062A3.836,3.836,0,0,0,1.926.311,2.432,2.432,0,0,0,.932.932a2.432,2.432,0,0,0-.621.994A2.831,2.831,0,0,0,.062,3.293,18.359,18.359,0,0,0,0,5.592a18.359,18.359,0,0,0,.062,2.3A3.836,3.836,0,0,0,.311,9.258a2.432,2.432,0,0,0,.621.994,2.432,2.432,0,0,0,.994.621,3.836,3.836,0,0,0,1.367.249,18.36,18.36,0,0,0,2.3.062,18.36,18.36,0,0,0,2.3-.062,3.836,3.836,0,0,0,1.367-.249,2.607,2.607,0,0,0,1.616-1.616,3.836,3.836,0,0,0,.249-1.367c0-.621.062-.808.062-2.3a18.36,18.36,0,0,0-.062-2.3,3.836,3.836,0,0,0-.249-1.367,2.432,2.432,0,0,0-.621-.994A2.432,2.432,0,0,0,9.258.311,3.836,3.836,0,0,0,7.891.062,18.359,18.359,0,0,0,5.592,0m0,2.734A2.812,2.812,0,0,0,2.734,5.592,2.858,2.858,0,1,0,5.592,2.734m0,4.722A1.831,1.831,0,0,1,3.728,5.592,1.831,1.831,0,0,1,5.592,3.728,1.831,1.831,0,0,1,7.456,5.592,1.831,1.831,0,0,1,5.592,7.456m2.982-5.53a.683.683,0,1,0,.683.683.69.69,0,0,0-.683-.683" fillRule="evenodd"></path>
</svg>
